<svg xmlns="http://www.w3.org/2000/svg" xmlns:xlink="http://www.w3.org/1999/xlink" xmlns:s="https://github.com/nturley/netlistsvg" width="249" height="291">
  <style>svg {
    stroke:#000;
    fill:none;
  }
  text {
    fill:#000;
    stroke:none;
    font-size:10px;
    font-weight: bold;
    font-family: "Courier New", monospace;
  }
  .nodelabel {
    text-anchor: middle;
  }
  .inputPortLabel {
    text-anchor: end;
  }
  .splitjoinBody {
    fill:#000;
  }</style>
  <g s:type="not" transform="translate(142,194)" s:width="30" s:height="20" id="cell_$not$./top.v:19$2">
    <s:alias val="$_NOT_"/>
    <s:alias val="$not"/>
    <s:alias val="$logic_not"/>
    <path d="M0,0 L0,20 L20,10 Z" class="cell_$not$./top.v:19$2"/>
    <circle cx="23" cy="10" r="3" class="cell_$not$./top.v:19$2"/>
    <g s:x="0" s:y="10" s:pid="A"/>
    <g s:x="25" s:y="10" s:pid="Y"/>
  </g>
  <g s:type="or" transform="translate(77,191.5)" s:width="30" s:height="25" id="cell_$or$./top.v:19$1">
    <s:alias val="$or"/>
    <s:alias val="$logic_or"/>
    <s:alias val="$_OR_"/>
    <path d="M0,25 L0,25 L15,25 A15 12.5 0 0 0 15,0 L0,0" class="cell_$or$./top.v:19$1"/>
    <path d="M0,0 A30 25 0 0 1 0,25" class="cell_$or$./top.v:19$1"/>
    <g s:x="3" s:y="5" s:pid="A"/>
    <g s:x="3" s:y="20" s:pid="B"/>
    <g s:x="30" s:y="12.5" s:pid="Y"/>
  </g>
  <g s:type="inputExt" transform="translate(12,64)" s:width="30" s:height="20" id="cell_I01">
    <text x="15" y="-4" class="nodelabel cell_I01" s:attribute="ref">I01</text>
    <s:alias val="$_inputExt_"/>
    <path d="M0,0 L0,20 L15,20 L30,10 L15,0 Z" class="cell_I01"/>
    <g s:x="28" s:y="10" s:pid="Y"/>
  </g>
  <g s:type="inputExt" transform="translate(12,201.5)" s:width="30" s:height="20" id="cell_I02">
    <text x="15" y="-4" class="nodelabel cell_I02" s:attribute="ref">I02</text>
    <s:alias val="$_inputExt_"/>
    <path d="M0,0 L0,20 L15,20 L30,10 L15,0 Z" class="cell_I02"/>
    <g s:x="28" s:y="10" s:pid="Y"/>
  </g>
  <g s:type="inputExt" transform="translate(12,22)" s:width="30" s:height="20" id="cell_I03">
    <text x="15" y="-4" class="nodelabel cell_I03" s:attribute="ref">I03</text>
    <s:alias val="$_inputExt_"/>
    <path d="M0,0 L0,20 L15,20 L30,10 L15,0 Z" class="cell_I03"/>
    <g s:x="28" s:y="10" s:pid="Y"/>
  </g>
  <g s:type="inputExt" transform="translate(119,22)" s:width="30" s:height="20" id="cell_I04">
    <text x="15" y="-4" class="nodelabel cell_I04" s:attribute="ref">I04</text>
    <s:alias val="$_inputExt_"/>
    <path d="M0,0 L0,20 L15,20 L30,10 L15,0 Z" class="cell_I04"/>
    <g s:x="28" s:y="10" s:pid="Y"/>
  </g>
  <g s:type="outputExt" transform="translate(207,64)" s:width="30" s:height="20" id="cell_Q01">
    <text x="15" y="-4" class="nodelabel cell_Q01" s:attribute="ref">Q01</text>
    <s:alias val="$_outputExt_"/>
    <path d="M30,0 L30,20 L15,20 L0,10 L15,0 Z" class="cell_Q01"/>
    <g s:x="0" s:y="10" s:pid="A"/>
  </g>
  <g s:type="outputExt" transform="translate(207,194)" s:width="30" s:height="20" id="cell_Q02">
    <text x="15" y="-4" class="nodelabel cell_Q02" s:attribute="ref">Q02</text>
    <s:alias val="$_outputExt_"/>
    <path d="M30,0 L30,20 L15,20 L0,10 L15,0 Z" class="cell_Q02"/>
    <g s:x="0" s:y="10" s:pid="A"/>
  </g>
  <g s:type="outputExt" transform="translate(207,129)" s:width="30" s:height="20" id="cell_Q00">
    <text x="15" y="-4" class="nodelabel cell_Q00" s:attribute="ref">Q00</text>
    <s:alias val="$_outputExt_"/>
    <path d="M30,0 L30,20 L15,20 L0,10 L15,0 Z" class="cell_Q00"/>
    <g s:x="0" s:y="10" s:pid="A"/>
  </g>
  <g s:type="outputExt" transform="translate(207,259)" s:width="30" s:height="20" id="cell_Q05">
    <text x="15" y="-4" class="nodelabel cell_Q05" s:attribute="ref">Q05</text>
    <s:alias val="$_outputExt_"/>
    <path d="M30,0 L30,20 L15,20 L0,10 L15,0 Z" class="cell_Q05"/>
    <g s:x="0" s:y="10" s:pid="A"/>
  </g>
  <g s:type="outputExt" transform="translate(77,22)" s:width="30" s:height="20" id="cell_Q03">
    <text x="15" y="-4" class="nodelabel cell_Q03" s:attribute="ref">Q03</text>
    <s:alias val="$_outputExt_"/>
    <path d="M30,0 L30,20 L15,20 L0,10 L15,0 Z" class="cell_Q03"/>
    <g s:x="0" s:y="10" s:pid="A"/>
  </g>
  <g s:type="outputExt" transform="translate(184,22)" s:width="30" s:height="20" id="cell_Q04">
    <text x="15" y="-4" class="nodelabel cell_Q04" s:attribute="ref">Q04</text>
    <s:alias val="$_outputExt_"/>
    <path d="M30,0 L30,20 L15,20 L0,10 L15,0 Z" class="cell_Q04"/>
    <g s:x="0" s:y="10" s:pid="A"/>
  </g>
  <line x1="107" x2="142" y1="204" y2="204" class="net_7"/>
  <line x1="40" x2="52" y1="74" y2="74" class="net_2"/>
  <line x1="52" x2="52" y1="74" y2="196.5" class="net_2"/>
  <circle cx="52" cy="74" r="2" style="fill:#000" class="net_2"/>
  <line x1="52" x2="80" y1="196.5" y2="196.5" class="net_2"/>
  <line x1="40" x2="207" y1="74" y2="74" class="net_2"/>
  <line x1="40" x2="182" y1="74" y2="74" class="net_2"/>
  <line x1="182" x2="182" y1="74" y2="139" class="net_2"/>
  <circle cx="182" cy="74" r="2" style="fill:#000" class="net_2"/>
  <line x1="182" x2="207" y1="139" y2="139" class="net_2"/>
  <line x1="40" x2="80" y1="211.5" y2="211.5" class="net_3"/>
  <line x1="167" x2="207" y1="204" y2="204" class="net_6"/>
  <line x1="167" x2="182" y1="204" y2="204" class="net_6"/>
  <line x1="182" x2="182" y1="204" y2="269" class="net_6"/>
  <circle cx="182" cy="204" r="2" style="fill:#000" class="net_6"/>
  <line x1="182" x2="207" y1="269" y2="269" class="net_6"/>
  <line x1="40" x2="77" y1="32" y2="32" class="net_4"/>
  <line x1="147" x2="184" y1="32" y2="32" class="net_5"/>
</svg>
